<?xml version="1.0" standalone="no"?>
<!DOCTYPE svg PUBLIC "-//W3C//DTD SVG 20010904//EN"
 "http://www.w3.org/TR/2001/REC-SVG-20010904/DTD/svg10.dtd">
<svg version="1.0" xmlns="http://www.w3.org/2000/svg"
 width="400.000000pt" height="400.000000pt" viewBox="0 0 400.000000 400.000000"
 preserveAspectRatio="xMidYMid meet">
<metadata>
Created by potrace 1.11, written by Peter Selinger 2001-2013
</metadata>
<g transform="translate(0.000000,400.000000) scale(0.100000,-0.100000)"
fill="#000000" stroke="none">
<path d="M730 3995 c0 -3 12 -29 27 -58 24 -45 28 -68 33 -167 l6 -115 -37
-58 c-70 -108 -102 -225 -114 -412 -14 -214 19 -419 91 -584 13 -29 24 -72 24
-95 0 -65 19 -163 46 -240 28 -80 120 -229 128 -206 3 8 23 148 46 310 85 622
86 626 212 867 l69 132 52 -25 c55 -25 135 -32 194 -15 25 7 41 4 81 -15 107
-51 166 -59 447 -58 336 1 462 22 628 105 l59 31 -22 -32 c-13 -18 -51 -55
-86 -84 -34 -28 -61 -52 -59 -54 7 -7 83 31 119 60 25 20 37 26 33 15 -19 -46
-16 -49 12 -17 l31 34 0 -41 c0 -67 32 -150 108 -282 40 -69 81 -149 92 -179
32 -84 49 -210 60 -437 6 -115 14 -228 19 -250 21 -94 24 -105 30 -105 9 0 83
137 108 200 12 30 24 78 28 105 4 28 18 71 31 97 46 90 68 194 68 313 0 61 -6
122 -12 137 -9 22 -6 45 15 125 21 81 26 121 26 228 0 116 -2 139 -27 209 -49
143 -155 297 -279 405 -57 50 -145 101 -174 101 -21 0 -15 17 13 35 17 11 36
15 56 11 18 -3 27 -2 23 4 -4 7 -348 10 -971 10 -641 0 -963 -3 -959 -10 3 -5
2 -10 -4 -10 -5 0 -12 4 -15 9 -6 10 -256 15 -256 6z"/>
<path d="M1245 2628 c-36 -13 -130 -72 -140 -88 -4 -6 17 1 46 17 48 25 64 28
144 27 76 -1 108 -7 205 -39 96 -31 130 -38 205 -39 77 -1 90 1 93 16 5 27
-46 47 -219 84 -165 35 -276 43 -334 22z"/>
<path d="M2440 2611 c-218 -49 -249 -62 -236 -96 11 -30 155 -15 296 31 96 31
130 37 205 38 80 1 96 -2 145 -27 l55 -28 -32 29 c-99 87 -218 101 -433 53z"/>
<path d="M1289 2450 c-57 -10 -76 -19 -113 -59 -27 -28 -28 -31 -9 -31 12 0
25 -11 34 -27 l14 -28 3 43 c3 38 7 45 35 56 18 8 48 16 68 20 l37 6 -15 -42
c-15 -42 -13 -121 2 -160 9 -23 -24 -24 -65 -3 -17 9 -30 11 -30 6 0 -35 191
-52 315 -28 l70 13 0 91 0 91 39 -20 c21 -11 49 -30 62 -43 13 -13 24 -20 24
-14 0 5 -20 29 -44 54 -62 61 -142 85 -280 84 -55 -1 -122 -5 -147 -9z m280
-36 c26 -5 31 -11 31 -34 0 -40 -29 -48 -57 -15 -23 26 -30 55 -14 55 5 0 23
-3 40 -6z m-141 -186 c-2 -6 -10 -14 -16 -16 -7 -2 -10 2 -6 12 7 18 28 22 22
4z"/>
<path d="M2393 2442 c-71 -25 -124 -63 -147 -103 l-19 -34 34 31 c28 26 88 64
101 64 2 0 3 -38 3 -85 0 -47 -3 -85 -8 -85 -4 0 -6 -4 -3 -9 10 -15 184 -34
265 -28 78 5 121 18 121 38 0 6 -10 3 -22 -5 -12 -9 -33 -16 -46 -16 -19 0
-23 4 -17 18 15 39 17 118 2 160 l-15 42 37 -6 c66 -12 91 -31 91 -69 0 -41
17 -55 26 -21 3 15 14 26 26 28 19 3 19 5 -8 32 -48 48 -86 58 -234 63 -113 3
-143 1 -187 -15z m235 -53 c2 -28 -1 -38 -15 -43 -22 -9 -63 34 -63 65 0 17 6
20 38 17 35 -3 37 -5 40 -39z m-168 -158 c0 -6 -4 -13 -10 -16 -5 -3 -10 1
-10 9 0 9 5 16 10 16 6 0 10 -4 10 -9z"/>
<path d="M2600 814 c-86 -13 -88 -14 -93 -43 -4 -16 3 -89 14 -163 l19 -133
-31 -60 c-49 -94 -133 -201 -247 -313 l-105 -102 912 0 c501 0 911 3 911 8 0
24 -73 127 -129 182 -118 115 -256 180 -479 226 -125 26 -133 29 -138 53 -9
47 -39 95 -69 113 -18 10 -71 22 -124 28 -107 12 -149 31 -224 98 -28 26 -66
57 -84 70 -30 21 -101 40 -133 36z"/>
<path d="M1310 779 c-24 -11 -67 -37 -95 -57 -122 -91 -206 -132 -271 -132
-108 0 -179 -42 -190 -111 -6 -37 -8 -38 -63 -49 -201 -41 -242 -53 -326 -94
-49 -25 -113 -64 -142 -88 -59 -49 -144 -152 -174 -209 l-19 -39 905 0 906 0
-93 89 c-100 96 -190 213 -248 322 l-36 69 13 102 c17 145 17 204 -3 212 -33
13 -120 5 -164 -15z"/>
</g>
</svg>
